Coordinates
version=1
nRows=7
nColumns=40
inDegrees=yes

Units are S.I. units (second, meters, Newtons, ...)
Angles are in degrees.

endheader
time	pelvis_tilt	pelvis_list	pelvis_rotation	pelvis_tx	pelvis_ty	pelvis_tz	hip_flexion_r	hip_adduction_r	hip_rotation_r	knee_angle_r	knee_angle_r_beta	ankle_angle_r	subtalar_angle_r	mtp_angle_r	hip_flexion_l	hip_adduction_l	hip_rotation_l	knee_angle_l	knee_angle_l_beta	ankle_angle_l	subtalar_angle_l	mtp_angle_l	lumbar_extension	lumbar_bending	lumbar_rotation	arm_flex_r	arm_add_r	arm_rot_r	elbow_flex_r	pro_sup_r	wrist_flex_r	wrist_dev_r	arm_flex_l	arm_add_l	arm_rot_l	elbow_flex_l	pro_sup_l	wrist_flex_l	wrist_dev_l
     43.31000000	     -6.14002877	     -4.89334734	      0.90397707	      1.02968024	      0.92949010	      0.41347210	     35.18118527	     -4.44321734	     -4.11720288	     71.34305743	     71.34305743	      1.91555410	    -17.78458768	      3.16087148	     19.65982374	     -5.21453310	     -6.76357941	     22.69844234	     22.69844234	     11.39083800	    -12.27991677	      0.26510126	    -11.82671602	      5.55297421	      1.86794102	     10.71817825	    -13.42251578	     -0.65474982	     50.09149838	     44.09360009	      0.00000000	      0.00000000	      9.97711499	    -12.95172601	      1.40009184	     40.49246947	     44.23244910	      0.00000000	      0.00000000
     43.32235714	     -6.07389388	     -5.10632208	      0.67292684	      1.02920478	      0.92999174	      0.41339378	     36.30833627	     -4.14817203	     -3.97689799	     70.32471851	     70.32471851	      1.99396033	    -17.44676226	      3.12969759	     18.98148723	     -5.47696934	     -6.82267111	     22.60789964	     22.60789964	     11.76569312	    -12.31887914	      0.16358054	    -11.94405056	      5.90294386	      1.56127212	      8.72634885	    -13.41533699	     -0.48096762	     48.86883594	     44.12716290	      0.00000000	      0.00000000	     11.34539656	    -13.76864387	      1.11134441	     41.28362961	     44.29300901	      0.00000000	      0.00000000
     43.33471429	     -5.96230010	     -5.34749594	      0.32325019	      1.02878931	      0.93062192	      0.41338115	     37.23261308	     -3.74473070	     -3.77823016	     69.00847594	     69.00847594	      1.54704009	    -17.33424964	      2.04528203	     18.17311037	     -5.81903546	     -7.11463852	     22.41703826	     22.41703826	     12.18204044	    -12.13408469	     -0.05270890	    -12.11617853	      6.17171506	      2.25796349	      8.21417890	    -13.43560218	     -0.58458713	     41.63810661	     44.48913265	      0.00000000	      0.00000000	     12.30217443	    -14.02458730	      0.72727346	     45.09547933	     44.50657852	      0.00000000	      0.00000000
     43.34707143	     -5.84941067	     -5.52383703	      0.00960612	      1.02836916	      0.93111027	      0.41341132	     38.07425561	     -3.37853695	     -3.54927368	     67.57695274	     67.57695274	      1.42618244	    -17.00575071	      1.93506594	     17.38456991	     -6.03793615	     -7.23422621	     22.23826241	     22.23826241	     12.53792230	    -12.27064091	     -0.06206079	    -12.34869991	      6.43342335	      2.95618471	      6.30470186	    -13.78559342	     -0.40213985	     39.13187732	     44.58628454	      0.00000000	      0.00000000	     13.90354544	    -14.25234624	      0.27015435	     47.00218708	     44.61923002	      0.00000000	      0.00000000
     43.35942857	     -5.78642734	     -5.68695478	     -0.21731429	      1.02796595	      0.93149059	      0.41342308	     38.77372307	     -3.11153956	     -3.47494054	     65.81705577	     65.81705577	      1.01569955	    -16.67987966	      0.96107227	     16.66594815	     -6.23993958	     -7.37261825	     22.05556231	     22.05556231	     12.92790087	    -12.18790297	     -0.07909226	    -12.44381075	      6.66140083	      2.16841243	      6.71721317	    -13.13361820	     -0.55776519	     32.69070510	     44.96584409	      0.00000000	      0.00000000	     13.93984491	    -15.24188781	     -0.77232271	     50.63235488	     44.94910666	      0.00000000	      0.00000000
     43.37178571	     -5.71485442	     -5.85583371	     -0.42855350	      1.02762786	      0.93182648	      0.41347304	     39.32566578	     -2.85506774	     -3.47585914	     63.82090545	     63.82090545	      0.96649894	    -16.02316054	      1.00108342	     15.91443484	     -6.43043824	     -7.46313238	     21.81472944	     21.81472944	     13.25639518	    -12.19690465	     -0.11528018	    -12.60684389	      6.93816838	      2.53877064	      4.86539780	    -13.39093417	     -0.46302418	     31.16829203	     45.02074979	      0.00000000	      0.00000000	     15.43468577	    -15.47470685	     -1.18461066	     52.09884506	     45.03553116	      0.00000000	      0.00000000
     43.38414286	     -5.64369945	     -5.92529572	     -0.70496940	      1.02728853	      0.93201479	      0.41371113	     39.76352164	     -2.64783643	     -3.40579569	     61.55910730	     61.55910730	      0.86560120	    -15.22251824	      0.86871185	     15.14375363	     -6.54143246	     -7.68453908	     21.56907548	     21.56907548	     13.60170116	    -12.12978551	     -0.19040761	    -12.80578110	      7.00740907	      3.09937179	      3.18463716	    -13.60788820	     -0.38844794	     29.12458573	     45.10774357	      0.00000000	      0.00000000	     16.82182939	    -15.65436329	     -1.62586653	     54.22319953	     45.13849121	      0.00000000	      0.00000000
